<?xml version="1.0" encoding="us-ascii" standalone="no"?><svg xmlns="http://www.w3.org/2000/svg" xmlns:xlink="http://www.w3.org/1999/xlink" contentStyleType="text/css" height="472px" preserveAspectRatio="none" style="width:315px;height:472px;background:#FFFFFF;" version="1.1" viewBox="0 0 315 472" width="315px" zoomAndPan="magnify"><defs/><g><text fill="#000000" font-family="sans-serif" font-size="14" font-weight="bold" lengthAdjust="spacing" textLength="125" x="88.25" y="23.1318">Type 2 Uncoupled</text><!--entity atm--><g id="elem_atm"><path d="M34.0008,52.7596 C39.1512,43.2971 46.2382,43.2779 53.1967,50.7044 C60.8962,43.4194 67.9425,43.0986 73.3165,53.3696 C80.698,57.0418 83.4499,61.165 76.805,68.1482 C83.8826,74.6318 80.0976,81.7643 72.288,84.0078 C69.8776,94.591 61.8465,99.4499 52.8053,90.6848 C44.6892,96.6708 36.409,92.1931 34.9659,82.8958 C26.3286,81.2919 26.2063,76.2056 30.2332,69.9661 C24.3847,63.4442 25.2486,56.0844 34.0008,52.7596 " fill="#F1F1F1" style="stroke:#181818;stroke-width:0.5;"/><text fill="#000000" font-family="sans-serif" font-size="14" lengthAdjust="spacing" textLength="24" x="40.5" y="72.8865">atm</text></g><!--entity snow--><g id="elem_snow"><polygon fill="#F1F1F1" points="16,191.7546,26,181.7546,89,181.7546,89,217.8533,79,227.8533,16,227.8533,16,191.7546" style="stroke:#181818;stroke-width:0.5;"/><line style="stroke:#181818;stroke-width:0.5;" x1="79" x2="89" y1="191.7546" y2="181.7546"/><line style="stroke:#181818;stroke-width:0.5;" x1="16" x2="79" y1="191.7546" y2="191.7546"/><line style="stroke:#181818;stroke-width:0.5;" x1="79" x2="79" y1="191.7546" y2="227.8533"/><text fill="#000000" font-family="sans-serif" font-size="14" lengthAdjust="spacing" textLength="33" x="31" y="214.8865">snow</text></g><!--entity ice--><g id="elem_ice"><polygon fill="#F1F1F1" points="122,298.7546,132,288.7546,253,288.7546,253,324.8533,243,334.8533,122,334.8533,122,298.7546" style="stroke:#181818;stroke-width:0.5;"/><line style="stroke:#181818;stroke-width:0.5;" x1="243" x2="253" y1="298.7546" y2="288.7546"/><line style="stroke:#181818;stroke-width:0.5;" x1="122" x2="243" y1="298.7546" y2="298.7546"/><line style="stroke:#181818;stroke-width:0.5;" x1="243" x2="243" y1="298.7546" y2="334.8533"/><text fill="#000000" font-family="sans-serif" font-size="14" lengthAdjust="spacing" textLength="91" x="137" y="321.8865">fixed ice sheet</text></g><!--entity ocean--><g id="elem_ocean"><rect fill="#F1F1F1" height="36.0986" rx="2.5" ry="2.5" style="stroke:none;stroke-width:0.5;" width="59" x="32" y="427.7546"/><path d="M17,427.7546 L29.5,427.7546 A2.5,2.5 0 0 1 32,430.2546 L32,461.3533 A2.5,2.5 0 0 0 34.5,463.8533 L88.5,463.8533 A2.5,2.5 0 0 0 91,461.3533 L91,430.2546 A2.5,2.5 0 0 1 93.5,427.7546 L106,427.7546 " fill="none" style="stroke:#181818;stroke-width:0.5;"/><text fill="#000000" font-family="sans-serif" font-size="14" lengthAdjust="spacing" textLength="39" x="42" y="450.8865">ocean</text></g><!--entity legend--><g id="elem_legend"><rect fill="#F1F1F1" height="36.0986" rx="2.5" ry="2.5" style="stroke:#181818;stroke-width:0.5;" width="130" x="114.5" y="49.7546"/><text fill="#000000" font-family="sans-serif" font-size="14" lengthAdjust="spacing" textLength="110" x="124.5" y="72.8865">(1) + (2) + (3) = 0</text></g><g id="elem_GMN11"><path d="M124.5,184.7546 L124.5,200.7546 L89.02,204.7546 L124.5,208.7546 L124.5,224.6521 A0,0 0 0 0 124.5,224.6521 L308.5,224.6521 A0,0 0 0 0 308.5,224.6521 L308.5,194.7546 L298.5,184.7546 L124.5,184.7546 A0,0 0 0 0 124.5,184.7546 " fill="#FEFFDD" style="stroke:#181818;stroke-width:0.5;"/><path d="M298.5,184.7546 L298.5,194.7546 L308.5,194.7546 L298.5,184.7546 " fill="#FEFFDD" style="stroke:#181818;stroke-width:0.5;"/><text fill="#000000" font-family="sans-serif" font-size="13" lengthAdjust="spacing" textLength="139" x="130.5" y="201.9485">Closed volume graphics</text><text fill="#000000" font-family="sans-serif" font-size="13" lengthAdjust="spacing" textLength="163" x="130.5" y="216.8972">are fixed volumes in models</text></g><g id="elem_GMN14"><path d="M141,425.7546 L141,441.7546 L106.03,445.7546 L141,449.7546 L141,465.6521 A0,0 0 0 0 141,465.6521 L280,465.6521 A0,0 0 0 0 280,465.6521 L280,435.7546 L270,425.7546 L141,425.7546 A0,0 0 0 0 141,425.7546 " fill="#FEFFDD" style="stroke:#181818;stroke-width:0.5;"/><path d="M270,425.7546 L270,435.7546 L280,435.7546 L270,425.7546 " fill="#FEFFDD" style="stroke:#181818;stroke-width:0.5;"/><text fill="#000000" font-family="sans-serif" font-size="13" lengthAdjust="spacing" textLength="117" x="147" y="442.9485">Open-topped stacks</text><text fill="#000000" font-family="sans-serif" font-size="13" lengthAdjust="spacing" textLength="118" x="147" y="457.8972">are not fixed-volume</text></g><!--link atm to snow--><g id="link_atm_snow"><path d="M52.5,97.0446 C52.5,122.0646 52.5,150.4046 52.5,175.4246 " fill="none" id="atm-snow" style="stroke:#181818;stroke-width:1.0;"/><polygon fill="#181818" points="52.5,91.0446,48.5,100.0446,52.5,96.0446,56.5,100.0446,52.5,91.0446" style="stroke:#181818;stroke-width:1.0;"/><polygon fill="#181818" points="52.5,181.4246,56.5,172.4246,52.5,176.4246,48.5,172.4246,52.5,181.4246" style="stroke:#181818;stroke-width:1.0;"/><text fill="#000000" font-family="sans-serif" font-size="13" lengthAdjust="spacing" textLength="67" x="53.5" y="133.9485">(1) precip &amp;</text><text fill="#000000" font-family="sans-serif" font-size="13" lengthAdjust="spacing" textLength="66" x="58" y="148.8972">sublimation</text></g><!--link snow to ocean--><g id="link_snow_ocean"><path d="M51.82,227.9446 C51.34,244.6646 50.75,268.1446 50.5,288.7546 C50.25,309.1946 49.48,314.3346 50.5,334.7546 C52.14,367.7246 55.7904,400.0916 58.5104,421.6916 " fill="none" id="snow-to-ocean" style="stroke:#181818;stroke-width:1.0;"/><polygon fill="#181818" points="59.26,427.6446,62.1042,418.2154,58.6353,422.6838,54.1669,419.2149,59.26,427.6446" style="stroke:#181818;stroke-width:1.0;"/><text fill="#000000" font-family="sans-serif" font-size="13" lengthAdjust="spacing" textLength="52" x="51.5" y="316.9485">(3) runoff</text></g><!--link snow to ice--><g id="link_snow_ice"><path d="M80.8,227.7646 C103.69,245.5646 135.77,270.5246 158.77,288.4146 " fill="none" id="snow-ice" style="stroke:#181818;stroke-width:1.0;"/></g><!--link ice to ocean--><g id="link_ice_ocean"><path d="M166.41,334.8446 C141.47,360.9746 104.6327,399.5644 81.9827,423.2944 " fill="none" id="ice-to-ocean" style="stroke:#181818;stroke-width:1.0;"/><polygon fill="#181818" points="77.84,427.6346,86.9476,423.8861,81.2923,424.0178,81.1606,418.3624,77.84,427.6346" style="stroke:#181818;stroke-width:1.0;"/><text fill="#000000" font-family="sans-serif" font-size="13" lengthAdjust="spacing" textLength="79" x="146" y="377.9485">(2) mass gain</text><text fill="#000000" font-family="sans-serif" font-size="13" lengthAdjust="spacing" textLength="98" x="136.5" y="392.8972">(no ocean -&gt; ice)</text></g><!--SRC=[NP2zRiCm38HtFiLDHOp0G9DkGTkb3z0bdU8EgapRGcHIiEJ-l7rbEHxQXI30xuv7dbtoVCBv9p2EU1EhS_3S4bclSmkJHX9j6L7qQ-sSPLoeSz_SbZuEp8dUAIPZhr3BHeYo3ezr_LnqE65tg10cjYxW3eqWpX_UZIOv5Ih8mXRj0ZzKc6RHhjjcPH4jvGzth32Q6D4R9utiH6-Zp6Is8ieRav7UCpptB6qElYJP5-c-B7h2VGwVJqkCoVL3WdPRwXUlCL_vgNuU6Vramk1iRCHCZFK1woZ22SRy71__6MrHNmDBdJI4h2cFkhbaUdMgLoUYNm00]--></g></svg>