<?xml version="1.0" encoding="us-ascii" standalone="no"?><svg xmlns="http://www.w3.org/2000/svg" xmlns:xlink="http://www.w3.org/1999/xlink" contentStyleType="text/css" height="454px" preserveAspectRatio="none" style="width:436px;height:454px;background:#FFFFFF;" version="1.1" viewBox="0 0 436 454" width="436px" zoomAndPan="magnify"><defs/><g><text fill="#000000" font-family="sans-serif" font-size="14" font-weight="bold" lengthAdjust="spacing" textLength="108" x="157.25" y="23.1318">Type 2 Coupled</text><!--entity atm--><g id="elem_atm"><path d="M178.5008,55.1036 C183.6512,45.6411 190.7382,45.6219 197.6967,53.0484 C205.3962,45.7634 212.4425,45.4426 217.8165,55.7136 C225.198,59.3858 227.9499,63.509 221.305,70.4922 C228.3826,76.9758 224.5976,84.1083 216.788,86.3518 C214.3776,96.935 206.3465,101.7939 197.3053,93.0288 C189.1892,99.0148 180.909,94.5371 179.4659,85.2398 C170.8286,83.6359 170.7063,78.5496 174.7332,72.3101 C168.8847,65.7882 169.7486,58.4284 178.5008,55.1036 " fill="#F1F1F1" style="stroke:#181818;stroke-width:0.5;"/><text fill="#000000" font-family="sans-serif" font-size="14" lengthAdjust="spacing" textLength="24" x="185" y="75.2305">atm</text></g><!--entity snow--><g id="elem_snow"><rect fill="#F1F1F1" height="36.0986" rx="2.5" ry="2.5" style="stroke:none;stroke-width:0.5;" width="78" x="158" y="187.0986"/><path d="M143,187.0986 L155.5,187.0986 A2.5,2.5 0 0 1 158,189.5986 L158,220.6973 A2.5,2.5 0 0 0 160.5,223.1973 L233.5,223.1973 A2.5,2.5 0 0 0 236,220.6973 L236,189.5986 A2.5,2.5 0 0 1 238.5,187.0986 L251,187.0986 " fill="none" style="stroke:#181818;stroke-width:0.5;"/><text fill="#000000" font-family="sans-serif" font-size="14" lengthAdjust="spacing" textLength="58" x="168" y="210.2305">Snow (B)</text></g><!--entity ice--><g id="elem_ice"><rect fill="#F1F1F1" height="36.0986" rx="2.5" ry="2.5" style="stroke:none;stroke-width:0.5;" width="100" x="79" y="299.0986"/><path d="M64,299.0986 L76.5,299.0986 A2.5,2.5 0 0 1 79,301.5986 L79,332.6973 A2.5,2.5 0 0 0 81.5,335.1973 L176.5,335.1973 A2.5,2.5 0 0 0 179,332.6973 L179,301.5986 A2.5,2.5 0 0 1 181.5,299.0986 L194,299.0986 " fill="none" style="stroke:#181818;stroke-width:0.5;"/><text fill="#000000" font-family="sans-serif" font-size="14" lengthAdjust="spacing" textLength="80" x="89" y="322.2305">ice sheet (E)</text></g><!--entity ocean--><g id="elem_ocean"><rect fill="#F1F1F1" height="36.0986" rx="2.5" ry="2.5" style="stroke:none;stroke-width:0.5;" width="59" x="125.5" y="411.0986"/><path d="M110.5,411.0986 L123,411.0986 A2.5,2.5 0 0 1 125.5,413.5986 L125.5,444.6973 A2.5,2.5 0 0 0 128,447.1973 L182,447.1973 A2.5,2.5 0 0 0 184.5,444.6973 L184.5,413.5986 A2.5,2.5 0 0 1 187,411.0986 L199.5,411.0986 " fill="none" style="stroke:#181818;stroke-width:0.5;"/><text fill="#000000" font-family="sans-serif" font-size="14" lengthAdjust="spacing" textLength="39" x="135.5" y="434.2305">ocean</text></g><!--entity legend--><g id="elem_legend"><rect fill="#F1F1F1" height="52.1973" rx="2.5" ry="2.5" style="stroke:#181818;stroke-width:0.5;" width="171" x="259.5" y="44.0986"/><text fill="#000000" font-family="sans-serif" font-size="14" lengthAdjust="spacing" textLength="148" x="269.5" y="67.2305">(A) + [B] + (C) + (D) = 0</text><text fill="#000000" font-family="sans-serif" font-size="14" lengthAdjust="spacing" textLength="151" x="269.5" y="83.3291">(D) + (E) + (F) + (G) = 0</text></g><!--link atm to snow--><g id="link_atm_snow"><path d="M197,99.3586 C197,125.6886 197,156.9386 197,180.8586 " fill="none" id="atm-snow" style="stroke:#181818;stroke-width:1.0;"/><polygon fill="#181818" points="197,93.3586,193,102.3586,197,98.3586,201,102.3586,197,93.3586" style="stroke:#181818;stroke-width:1.0;"/><polygon fill="#181818" points="197,186.8586,201,177.8586,197,181.8586,193,177.8586,197,186.8586" style="stroke:#181818;stroke-width:1.0;"/><text fill="#000000" font-family="sans-serif" font-size="13" lengthAdjust="spacing" textLength="69" x="198" y="139.2925">(A) precip &amp;</text><text fill="#000000" font-family="sans-serif" font-size="13" lengthAdjust="spacing" textLength="66" x="203.5" y="154.2412">sublimation</text></g><!--link snow to ocean--><g id="link_snow_ocean"><path d="M219.69,223.2686 C228.41,231.2686 237.37,241.5686 242,253.0986 C254.11,283.2686 317.26,250.5386 238,381.0986 C229.32,395.3986 219.9468,403.0659 205.2668,410.3359 " fill="none" id="snow-to-ocean" style="stroke:#181818;stroke-width:1.0;"/><polygon fill="#181818" points="199.89,412.9986,209.7303,412.589,204.3706,410.7797,206.18,405.42,199.89,412.9986" style="stroke:#181818;stroke-width:1.0;"/><text fill="#000000" font-family="sans-serif" font-size="13" lengthAdjust="spacing" textLength="54" x="277" y="322.2925">(C) runoff</text></g><!--link snow to ice--><g id="link_snow_ice"><path d="M172.56,223.1186 C162.67,231.1586 151.97,241.5286 145,253.0986 C136.49,267.2086 132.48,285.7186 130.61,299.0186 " fill="none" id="snow-ice" style="stroke:#181818;stroke-width:1.0;"/><text fill="#000000" font-family="sans-serif" font-size="13" lengthAdjust="spacing" textLength="91" x="146" y="266.2925">(D) Firn transfer</text></g><!--link ice to ocean--><g id="link_ice_ocean"><path d="M63.91,332.5886 C33.02,342.6986 6,358.4786 22,381.0986 C41.86,409.1886 74.0471,419.7136 104.4071,424.2936 " fill="none" id="ice-to-ocean" style="stroke:#181818;stroke-width:1.0;"/><polygon fill="#181818" points="110.34,425.1886,102.0374,419.8909,105.3959,424.4428,100.844,427.8014,110.34,425.1886" style="stroke:#181818;stroke-width:1.0;"/><text fill="#000000" font-family="sans-serif" font-size="13" lengthAdjust="spacing" textLength="88" x="23" y="378.2925">(F) Iceberg flux</text></g><!--link ice to ocean--><g id="link_ice_ocean"><path d="M133.06,335.2886 C137.94,355.9486 144.7102,384.5794 149.5802,405.1894 " fill="none" id="ice-to-ocean-1" style="stroke:#181818;stroke-width:1.0;"/><polygon fill="#181818" points="150.96,411.0286,152.7832,401.35,149.8102,406.1626,144.9976,403.1897,150.96,411.0286" style="stroke:#181818;stroke-width:1.0;"/><text fill="#000000" font-family="sans-serif" font-size="13" lengthAdjust="spacing" textLength="84" x="145" y="378.2925">(G) Basal melt</text></g><!--SRC=[PK_BJiCm4BplLym9nOeg8OuL8952AixqLd9mdKrguTYH7mB-7ji58SHbHjgPtPazw6XuYyFdohZ1pgNLy4YaZ4iZP5meHAdU4Anxnv5U2ZMTeE5xhXNdSQLmPeveddv5frXQedm5jvlD_UN85is3mEfPwHLNUBK8wMJq8gDsbggbUEjkCUy4VB9kcdwq6bQKHu5UUulefGqJUoh2dzrUu5dnYVsCoQIF_uQzG2U3D5ZOHA9SAaex6uRXcUsONojbMnox8MFfqjRSErnJuRRyMx2lkByemnS0]--></g></svg>