<?xml version="1.0" encoding="us-ascii" standalone="no"?><svg xmlns="http://www.w3.org/2000/svg" xmlns:xlink="http://www.w3.org/1999/xlink" contentStyleType="text/css" height="454px" preserveAspectRatio="none" style="width:638px;height:454px;background:#FFFFFF;" version="1.1" viewBox="0 0 638 454" width="638px" zoomAndPan="magnify"><defs/><g><text fill="#000000" font-family="sans-serif" font-size="14" font-weight="bold" lengthAdjust="spacing" textLength="108" x="258.14" y="23.1318">Type 2 Coupled</text><!--entity atm--><g id="elem_atm"><path d="M344.2808,55.1036 C349.4312,45.6411 356.5182,45.6219 363.4767,53.0484 C371.1762,45.7634 378.2225,45.4426 383.5965,55.7136 C390.978,59.3858 393.7299,63.509 387.085,70.4922 C394.1626,76.9758 390.3776,84.1083 382.568,86.3518 C380.1576,96.935 372.1265,101.7939 363.0853,93.0288 C354.9692,99.0148 346.689,94.5371 345.2459,85.2398 C336.6086,83.6359 336.4863,78.5496 340.5132,72.3101 C334.6647,65.7882 335.5286,58.4284 344.2808,55.1036 " fill="#F1F1F1" style="stroke:#181818;stroke-width:0.5;"/><text fill="#000000" font-family="sans-serif" font-size="14" lengthAdjust="spacing" textLength="24" x="350.78" y="75.2305">atm</text></g><!--entity snow--><g id="elem_snow"><rect fill="#F1F1F1" height="36.0986" rx="2.5" ry="2.5" style="stroke:none;stroke-width:0.5;" width="78" x="323.78" y="187.0986"/><path d="M308.78,187.0986 L321.28,187.0986 A2.5,2.5 0 0 1 323.78,189.5986 L323.78,220.6973 A2.5,2.5 0 0 0 326.28,223.1973 L399.28,223.1973 A2.5,2.5 0 0 0 401.78,220.6973 L401.78,189.5986 A2.5,2.5 0 0 1 404.28,187.0986 L416.78,187.0986 " fill="none" style="stroke:#181818;stroke-width:0.5;"/><text fill="#000000" font-family="sans-serif" font-size="14" lengthAdjust="spacing" textLength="58" x="333.78" y="210.2305">Snow (B)</text></g><!--entity ice--><g id="elem_ice"><rect fill="#F1F1F1" height="36.0986" rx="2.5" ry="2.5" style="stroke:none;stroke-width:0.5;" width="100" x="185.78" y="299.0986"/><path d="M170.78,299.0986 L183.28,299.0986 A2.5,2.5 0 0 1 185.78,301.5986 L185.78,332.6973 A2.5,2.5 0 0 0 188.28,335.1973 L283.28,335.1973 A2.5,2.5 0 0 0 285.78,332.6973 L285.78,301.5986 A2.5,2.5 0 0 1 288.28,299.0986 L300.78,299.0986 " fill="none" style="stroke:#181818;stroke-width:0.5;"/><text fill="#000000" font-family="sans-serif" font-size="14" lengthAdjust="spacing" textLength="80" x="195.78" y="322.2305">ice sheet (E)</text></g><!--entity ocean--><g id="elem_ocean"><rect fill="#F1F1F1" height="36.0986" rx="2.5" ry="2.5" style="stroke:none;stroke-width:0.5;" width="59" x="209.28" y="411.0986"/><path d="M194.28,411.0986 L206.78,411.0986 A2.5,2.5 0 0 1 209.28,413.5986 L209.28,444.6973 A2.5,2.5 0 0 0 211.78,447.1973 L265.78,447.1973 A2.5,2.5 0 0 0 268.28,444.6973 L268.28,413.5986 A2.5,2.5 0 0 1 270.78,411.0986 L283.28,411.0986 " fill="none" style="stroke:#181818;stroke-width:0.5;"/><text fill="#000000" font-family="sans-serif" font-size="14" lengthAdjust="spacing" textLength="39" x="219.28" y="434.2305">ocean</text></g><!--entity legend--><g id="elem_legend"><rect fill="#F1F1F1" height="52.1973" rx="2.5" ry="2.5" style="stroke:#181818;stroke-width:0.5;" width="207" x="425.28" y="44.0986"/><text fill="#000000" font-family="sans-serif" font-size="14" lengthAdjust="spacing" textLength="148" x="435.28" y="67.2305">(A) + [B] + (C) + (D) = 0</text><text fill="#000000" font-family="sans-serif" font-size="14" lengthAdjust="spacing" textLength="187" x="435.28" y="83.3291">(D) + (E) + (F) + (G) + (H) = 0</text></g><!--link atm to snow--><g id="link_atm_snow"><path d="M362.78,99.3586 C362.78,125.6886 362.78,156.9386 362.78,180.8586 " fill="none" id="atm-snow" style="stroke:#181818;stroke-width:1.0;"/><polygon fill="#181818" points="362.78,93.3586,358.78,102.3586,362.78,98.3586,366.78,102.3586,362.78,93.3586" style="stroke:#181818;stroke-width:1.0;"/><polygon fill="#181818" points="362.78,186.8586,366.78,177.8586,362.78,181.8586,358.78,177.8586,362.78,186.8586" style="stroke:#181818;stroke-width:1.0;"/><text fill="#000000" font-family="sans-serif" font-size="13" lengthAdjust="spacing" textLength="69" x="363.78" y="139.2925">(A) precip &amp;</text><text fill="#000000" font-family="sans-serif" font-size="13" lengthAdjust="spacing" textLength="66" x="369.28" y="154.2412">sublimation</text></g><!--link snow to ocean--><g id="link_snow_ocean"><path d="M385.48,223.2686 C394.19,231.2686 403.15,241.5686 407.78,253.0986 C423.94,293.3386 453.02,300.8486 377.78,381.0986 C353.39,407.1186 320.0155,417.725 289.4255,422.915 " fill="none" id="snow-to-ocean" style="stroke:#181818;stroke-width:1.0;"/><polygon fill="#181818" points="283.51,423.9186,293.0523,426.3568,288.4396,423.0823,291.7141,418.4695,283.51,423.9186" style="stroke:#181818;stroke-width:1.0;"/><text fill="#000000" font-family="sans-serif" font-size="13" lengthAdjust="spacing" textLength="54" x="427.78" y="322.2925">(C) runoff</text></g><!--link snow to ice--><g id="link_snow_ice"><path d="M338.4041,227.2162 C314.5441,247.8762 283.8157,274.4909 260.0157,295.1009 " fill="none" id="snow-ice" style="stroke:#181818;stroke-width:1.0;"/><polygon fill="#181818" points="342.94,223.2886,333.5178,226.156,339.1601,226.5616,338.7545,232.2039,342.94,223.2886" style="stroke:#181818;stroke-width:1.0;"/><polygon fill="#181818" points="255.48,299.0286,264.9021,296.1608,259.2598,295.7555,259.665,290.1132,255.48,299.0286" style="stroke:#181818;stroke-width:1.0;"/><text fill="#000000" font-family="sans-serif" font-size="13" lengthAdjust="spacing" textLength="91" x="308.78" y="266.2925">(D) Firn transfer</text></g><!--link ice to ocean--><g id="link_ice_ocean"><path d="M170.66,318.7986 C101.25,321.9286 6,334.4586 42.78,381.0986 C61.25,404.5186 136.1013,416.8863 188.0213,423.0063 " fill="none" id="ice-to-ocean" style="stroke:#181818;stroke-width:1.0;"/><polygon fill="#181818" points="193.98,423.7086,185.5101,418.6826,189.0144,423.1233,184.5736,426.6276,193.98,423.7086" style="stroke:#181818;stroke-width:1.0;"/><text fill="#000000" font-family="sans-serif" font-size="13" lengthAdjust="spacing" textLength="88" x="43.78" y="378.2925">(F) Iceberg flux</text></g><!--link ice to ocean--><g id="link_ice_ocean"><path d="M199.17,335.3486 C180.47,346.7686 163.42,362.9486 172.78,381.0986 C179.23,393.5986 185.6588,400.2705 197.2488,407.7005 " fill="none" id="ice-to-ocean-1" style="stroke:#181818;stroke-width:1.0;"/><polygon fill="#181818" points="202.3,410.9386,196.882,402.714,198.0907,408.2402,192.5645,409.4488,202.3,410.9386" style="stroke:#181818;stroke-width:1.0;"/><text fill="#000000" font-family="sans-serif" font-size="13" lengthAdjust="spacing" textLength="84" x="173.78" y="378.2925">(G) Basal melt</text></g><!--link ice to ocean--><g id="link_ice_ocean"><path d="M248.65,335.4286 C254.16,343.9086 259.97,354.5486 262.78,365.0986 C267.03,381.0486 262.4934,393.4465 254.7034,405.9465 " fill="none" id="ice-to-ocean-2" style="stroke:#181818;stroke-width:1.0;"/><polygon fill="#181818" points="251.53,411.0386,259.6848,405.5161,254.1745,406.7952,252.8954,401.2849,251.53,411.0386" style="stroke:#181818;stroke-width:1.0;"/><text fill="#000000" font-family="sans-serif" font-size="13" lengthAdjust="spacing" textLength="103" x="265.78" y="378.2925">(H) Surface runoff</text></g><!--SRC=[PL3BQiCm4BphA-PKB4oWz1ZQGft6IS_9BVL1aTUEY2mPFMZxzvNaG2cvpC3Cx6fMHnKqhN7ycGbFsDWuQ-ePazh67Y9Cp0SXh_36Vk743fcgXhFkfYj9IIxaBqG1rVRFj9A4OInjmVDgzReiMQDwuvWTIJNZ0Py6FfwrcaHGrh0IoTaocyCR3XUD7OR5AuloSzbxvsYLCmXE63-GOzduDzroV4WwaninwFXz7zXnDC8BZObqkBVt78Ve1f7qMmkMcWTXHatGD9Bfq_tveXgdfakO2zUbsWiUMUOwVqh6jk2ku7xnkry0]--></g></svg>