<?xml version="1.0" encoding="us-ascii" standalone="no"?><svg xmlns="http://www.w3.org/2000/svg" xmlns:xlink="http://www.w3.org/1999/xlink" contentStyleType="text/css" height="477px" preserveAspectRatio="none" style="width:425px;height:477px;background:#FFFFFF;" version="1.1" viewBox="0 0 425 477" width="425px" zoomAndPan="magnify"><defs/><g><text fill="#000000" font-family="sans-serif" font-size="14" font-weight="bold" lengthAdjust="spacing" textLength="125" x="143.25" y="23.1318">Type 1 Uncoupled</text><!--entity atm--><g id="elem_atm"><path d="M131.0008,52.7596 C136.1512,43.2971 143.2382,43.2779 150.1967,50.7044 C157.8962,43.4194 164.9425,43.0986 170.3165,53.3696 C177.698,57.0418 180.4499,61.165 173.805,68.1482 C180.8826,74.6318 177.0976,81.7643 169.288,84.0078 C166.8776,94.591 158.8465,99.4499 149.8053,90.6848 C141.6892,96.6708 133.409,92.1931 131.9659,82.8958 C123.3286,81.2919 123.2063,76.2056 127.2332,69.9661 C121.3847,63.4442 122.2486,56.0844 131.0008,52.7596 " fill="#F1F1F1" style="stroke:#181818;stroke-width:0.5;"/><text fill="#000000" font-family="sans-serif" font-size="14" lengthAdjust="spacing" textLength="24" x="137.5" y="72.8865">atm</text></g><!--entity snow--><g id="elem_snow"><rect fill="#F1F1F1" height="36.0986" rx="2.5" ry="2.5" style="stroke:none;stroke-width:0.5;" width="77" x="111" y="183.7546"/><path d="M96,183.7546 L108.5,183.7546 A2.5,2.5 0 0 1 111,186.2546 L111,217.3533 A2.5,2.5 0 0 0 113.5,219.8533 L185.5,219.8533 A2.5,2.5 0 0 0 188,217.3533 L188,186.2546 A2.5,2.5 0 0 1 190.5,183.7546 L203,183.7546 " fill="none" style="stroke:#181818;stroke-width:0.5;"/><text fill="#000000" font-family="sans-serif" font-size="14" lengthAdjust="spacing" textLength="57" x="121" y="206.8865">snow (D)</text></g><!--entity ice--><g id="elem_ice"><polygon fill="#F1F1F1" points="16,292.7546,26,282.7546,147,282.7546,147,318.8533,137,328.8533,16,328.8533,16,292.7546" style="stroke:#181818;stroke-width:0.5;"/><line style="stroke:#181818;stroke-width:0.5;" x1="137" x2="147" y1="292.7546" y2="282.7546"/><line style="stroke:#181818;stroke-width:0.5;" x1="16" x2="137" y1="292.7546" y2="292.7546"/><line style="stroke:#181818;stroke-width:0.5;" x1="137" x2="137" y1="292.7546" y2="328.8533"/><text fill="#000000" font-family="sans-serif" font-size="14" lengthAdjust="spacing" textLength="91" x="31" y="315.8865">fixed ice sheet</text></g><!--entity ocean--><g id="elem_ocean"><rect fill="#F1F1F1" height="36.0986" rx="2.5" ry="2.5" style="stroke:none;stroke-width:0.5;" width="59" x="120" y="434.7546"/><path d="M105,434.7546 L117.5,434.7546 A2.5,2.5 0 0 1 120,437.2546 L120,468.3533 A2.5,2.5 0 0 0 122.5,470.8533 L176.5,470.8533 A2.5,2.5 0 0 0 179,468.3533 L179,437.2546 A2.5,2.5 0 0 1 181.5,434.7546 L194,434.7546 " fill="none" style="stroke:#181818;stroke-width:0.5;"/><text fill="#000000" font-family="sans-serif" font-size="14" lengthAdjust="spacing" textLength="39" x="130" y="457.8865">ocean</text></g><g id="elem_GMN10"><path d="M238.5,181.7546 L238.5,197.7546 L203.34,201.7546 L238.5,205.7546 L238.5,221.6521 A0,0 0 0 0 238.5,221.6521 L418.5,221.6521 A0,0 0 0 0 418.5,221.6521 L418.5,191.7546 L408.5,181.7546 L238.5,181.7546 A0,0 0 0 0 238.5,181.7546 " fill="#FEFFDD" style="stroke:#181818;stroke-width:0.5;"/><path d="M408.5,181.7546 L408.5,191.7546 L418.5,191.7546 L408.5,181.7546 " fill="#FEFFDD" style="stroke:#181818;stroke-width:0.5;"/><text fill="#000000" font-family="sans-serif" font-size="13" lengthAdjust="spacing" textLength="159" x="244.5" y="198.9485">Labels inside are reservoirs</text><text fill="#000000" font-family="sans-serif" font-size="13" lengthAdjust="spacing" textLength="159" x="244.5" y="213.8972">Labels on arrows are fluxes</text></g><!--entity legend--><g id="elem_legend"><rect fill="#F1F1F1" height="36.0986" rx="2.5" ry="2.5" style="stroke:#181818;stroke-width:0.5;" width="170" x="211.5" y="49.7546"/><text fill="#000000" font-family="sans-serif" font-size="14" lengthAdjust="spacing" textLength="150" x="221.5" y="72.8865">(A) + (B) + (C) + (D) = 0</text></g><!--link atm to snow--><g id="link_atm_snow"><path d="M149.5,96.8446 C149.5,122.9746 149.5,153.9046 149.5,177.6346 " fill="none" id="atm-snow" style="stroke:#181818;stroke-width:1.0;"/><polygon fill="#181818" points="149.5,90.8446,145.5,99.8446,149.5,95.8446,153.5,99.8446,149.5,90.8446" style="stroke:#181818;stroke-width:1.0;"/><polygon fill="#181818" points="149.5,183.6346,153.5,174.6346,149.5,178.6346,145.5,174.6346,149.5,183.6346" style="stroke:#181818;stroke-width:1.0;"/><text fill="#000000" font-family="sans-serif" font-size="13" lengthAdjust="spacing" textLength="69" x="150.5" y="133.9485">(A) precip &amp;</text><text fill="#000000" font-family="sans-serif" font-size="13" lengthAdjust="spacing" textLength="66" x="154" y="148.8972">sublimation</text></g><!--link snow to ocean--><g id="link_snow_ocean"><path d="M160.13,219.8146 C180.81,255.3246 222.19,339.3146 195.5,404.7546 C190.76,416.3846 186.0695,422.6917 177.1595,430.6717 " fill="none" id="snow-to-ocean" style="stroke:#181818;stroke-width:1.0;"/><polygon fill="#181818" points="172.69,434.6746,182.0629,431.6498,176.4146,431.3388,176.7256,425.6905,172.69,434.6746" style="stroke:#181818;stroke-width:1.0;"/><text fill="#000000" font-family="sans-serif" font-size="13" lengthAdjust="spacing" textLength="54" x="202.5" y="310.9485">(C) runoff</text></g><!--link snow to ice--><g id="link_snow_ice"><path d="M137.96,220.0546 C126.45,237.3346 108.7,263.9546 96.18,282.7346 " fill="none" id="snow-ice" style="stroke:#181818;stroke-width:1.0;"/></g><!--link ice to ocean--><g id="link_ice_ocean"><path d="M78.78,328.7946 C77.26,349.6346 77.76,381.1446 90.5,404.7546 C97.03,416.8546 103.2372,423.4618 114.0572,431.1418 " fill="none" id="ice-to-ocean" style="stroke:#181818;stroke-width:1.0;"/><polygon fill="#181818" points="118.95,434.6146,113.9261,426.1435,114.8727,431.7206,109.2956,432.6672,118.95,434.6146" style="stroke:#181818;stroke-width:1.0;"/><text fill="#000000" font-family="sans-serif" font-size="13" lengthAdjust="spacing" textLength="99" x="91.5" y="371.9485">(B) excess mass</text><text fill="#000000" font-family="sans-serif" font-size="13" lengthAdjust="spacing" textLength="47" x="117.5" y="386.8972">from ice</text><text fill="#000000" font-family="sans-serif" font-size="13" lengthAdjust="spacing" textLength="98" x="92" y="401.8459">(no ocean -&gt; ice)</text></g><!--SRC=[LP2zRiCm38HtFWMdmeOHe5s3ja1_nexfL6TGPCeHAfE6A3VksrUIaw6B9F0-ddWy-1HeZuVVcV01FzdACWSQ06oGPK2J9j1ax3SgomNn2-hTlBTm19Q1q5lALUTN6kfRpqGfYrkNM38Ca6tmSRTxtbpssBoqE4UoViOxx5cNK_2JILvuyozeRItiMujnON7kfjL_e1p_kDSMQRMaYfDHxTb5cGhQSyDonJAVAotasHDXzECveRZRM1_cH47Hi_gSpCHCa5By4H-ptrKLpagKYrR0XMKb1SXXak4n40OQYOUyanAogsDrDKHNrePFU0_7Fm00]--></g></svg>