<?xml version="1.0" encoding="us-ascii" standalone="no"?><svg xmlns="http://www.w3.org/2000/svg" xmlns:xlink="http://www.w3.org/1999/xlink" contentStyleType="text/css" height="464px" preserveAspectRatio="none" style="width:424px;height:464px;background:#FFFFFF;" version="1.1" viewBox="0 0 424 464" width="424px" zoomAndPan="magnify"><defs/><g><text fill="#000000" font-family="sans-serif" font-size="14" font-weight="bold" lengthAdjust="spacing" textLength="108" x="151.08" y="23.1318">Type 2 Coupled</text><!--entity atm--><g id="elem_atm"><path d="M173.6608,55.1036 C178.8112,45.6411 185.8982,45.6219 192.8567,53.0484 C200.5562,45.7634 207.6025,45.4426 212.9765,55.7136 C220.358,59.3858 223.1099,63.509 216.465,70.4922 C223.5426,76.9758 219.7576,84.1083 211.948,86.3518 C209.5376,96.935 201.5065,101.7939 192.4653,93.0288 C184.3492,99.0148 176.069,94.5371 174.6259,85.2398 C165.9886,83.6359 165.8663,78.5496 169.8932,72.3101 C164.0447,65.7882 164.9086,58.4284 173.6608,55.1036 " fill="#F1F1F1" style="stroke:#181818;stroke-width:0.5;"/><text fill="#000000" font-family="sans-serif" font-size="14" lengthAdjust="spacing" textLength="24" x="180.16" y="75.2305">atm</text></g><!--entity snow--><g id="elem_snow"><polygon fill="#F1F1F1" points="155.66,197.0986,165.66,187.0986,228.66,187.0986,228.66,223.1973,218.66,233.1973,155.66,233.1973,155.66,197.0986" style="stroke:#181818;stroke-width:0.5;"/><line style="stroke:#181818;stroke-width:0.5;" x1="218.66" x2="228.66" y1="197.0986" y2="187.0986"/><line style="stroke:#181818;stroke-width:0.5;" x1="155.66" x2="218.66" y1="197.0986" y2="197.0986"/><line style="stroke:#181818;stroke-width:0.5;" x1="218.66" x2="218.66" y1="197.0986" y2="233.1973"/><text fill="#000000" font-family="sans-serif" font-size="14" lengthAdjust="spacing" textLength="33" x="170.66" y="220.2305">snow</text></g><!--entity ice--><g id="elem_ice"><rect fill="#F1F1F1" height="36.0986" rx="2.5" ry="2.5" style="stroke:none;stroke-width:0.5;" width="99" x="74.66" y="309.0986"/><path d="M59.66,309.0986 L72.16,309.0986 A2.5,2.5 0 0 1 74.66,311.5986 L74.66,342.6973 A2.5,2.5 0 0 0 77.16,345.1973 L171.16,345.1973 A2.5,2.5 0 0 0 173.66,342.6973 L173.66,311.5986 A2.5,2.5 0 0 1 176.16,309.0986 L188.66,309.0986 " fill="none" style="stroke:#181818;stroke-width:0.5;"/><text fill="#000000" font-family="sans-serif" font-size="14" lengthAdjust="spacing" textLength="79" x="84.66" y="332.2305">ice sheet (4)</text></g><!--entity ocean--><g id="elem_ocean"><rect fill="#F1F1F1" height="36.0986" rx="2.5" ry="2.5" style="stroke:none;stroke-width:0.5;" width="59" x="123.66" y="421.0986"/><path d="M108.66,421.0986 L121.16,421.0986 A2.5,2.5 0 0 1 123.66,423.5986 L123.66,454.6973 A2.5,2.5 0 0 0 126.16,457.1973 L180.16,457.1973 A2.5,2.5 0 0 0 182.66,454.6973 L182.66,423.5986 A2.5,2.5 0 0 1 185.16,421.0986 L197.66,421.0986 " fill="none" style="stroke:#181818;stroke-width:0.5;"/><text fill="#000000" font-family="sans-serif" font-size="14" lengthAdjust="spacing" textLength="39" x="133.66" y="444.2305">ocean</text></g><!--entity legend--><g id="elem_legend"><rect fill="#F1F1F1" height="52.1973" rx="2.5" ry="2.5" style="stroke:#181818;stroke-width:0.5;" width="164" x="254.16" y="44.0986"/><text fill="#000000" font-family="sans-serif" font-size="14" lengthAdjust="spacing" textLength="110" x="264.16" y="67.2305">(1) + (2) + (3) = 0</text><text fill="#000000" font-family="sans-serif" font-size="14" lengthAdjust="spacing" textLength="144" x="264.16" y="83.3291">(2) + (4) + (5) + (6) = 0</text></g><!--link atm to snow--><g id="link_atm_snow"><path d="M192.16,99.2686 C192.16,125.0186 192.16,155.2486 192.16,180.9786 " fill="none" id="atm-snow" style="stroke:#181818;stroke-width:1.0;"/><polygon fill="#181818" points="192.16,93.2686,188.16,102.2686,192.16,98.2686,196.16,102.2686,192.16,93.2686" style="stroke:#181818;stroke-width:1.0;"/><polygon fill="#181818" points="192.16,186.9786,196.16,177.9786,192.16,181.9786,188.16,177.9786,192.16,186.9786" style="stroke:#181818;stroke-width:1.0;"/><text fill="#000000" font-family="sans-serif" font-size="13" lengthAdjust="spacing" textLength="67" x="193.16" y="139.2925">(1) precip &amp;</text><text fill="#000000" font-family="sans-serif" font-size="13" lengthAdjust="spacing" textLength="66" x="197.66" y="154.2412">sublimation</text></g><!--link snow to ocean--><g id="link_snow_ocean"><path d="M217.52,233.2886 C225.37,241.7386 233.03,252.0186 237.16,263.0986 C248.76,294.2186 306.44,266.9986 232.16,391.0986 C224.29,404.2486 216.488,411.2666 203.208,418.5066 " fill="none" id="snow-to-ocean" style="stroke:#181818;stroke-width:1.0;"/><polygon fill="#181818" points="197.94,421.3786,207.7566,420.5826,202.33,418.9853,203.9273,413.5586,197.94,421.3786" style="stroke:#181818;stroke-width:1.0;"/><text fill="#000000" font-family="sans-serif" font-size="13" lengthAdjust="spacing" textLength="52" x="269.16" y="332.2925">(3) runoff</text></g><!--link snow to ice--><g id="link_snow_ice"><path d="M166.3,233.1486 C157.58,241.7286 148.47,252.1386 142.16,263.0986 C133.94,277.3986 129.25,295.7086 126.74,308.8986 " fill="none" id="snow-ice" style="stroke:#181818;stroke-width:1.0;"/><text fill="#000000" font-family="sans-serif" font-size="13" lengthAdjust="spacing" textLength="89" x="143.16" y="276.2925">(2) Firn transfer</text></g><!--link ice to ocean--><g id="link_ice_ocean"><path d="M59.33,343.7586 C30.45,354.0386 6,369.5986 21.16,391.0986 C40.79,418.9286 72.5007,429.4601 102.5807,434.1201 " fill="none" id="ice-to-ocean" style="stroke:#181818;stroke-width:1.0;"/><polygon fill="#181818" points="108.51,435.0386,100.2285,429.7079,103.5689,434.2732,99.0037,437.6136,108.51,435.0386" style="stroke:#181818;stroke-width:1.0;"/><text fill="#000000" font-family="sans-serif" font-size="13" lengthAdjust="spacing" textLength="87" x="22.16" y="388.2925">(5) Iceberg flux</text></g><!--link ice to ocean--><g id="link_ice_ocean"><path d="M128.69,345.2886 C134.14,365.9486 141.7014,394.6166 147.1314,415.2266 " fill="none" id="ice-to-ocean-1" style="stroke:#181818;stroke-width:1.0;"/><polygon fill="#181818" points="148.66,421.0286,150.2351,411.3065,147.3861,416.1936,142.4991,413.3447,148.66,421.0286" style="stroke:#181818;stroke-width:1.0;"/><text fill="#000000" font-family="sans-serif" font-size="13" lengthAdjust="spacing" textLength="81" x="142.16" y="388.2925">(6) Basal melt</text></g><!--SRC=[PO-zJWD138HxFyLKAAie4eGaHHGeG4AYJmSfDdk-OyMUzxG_0jwUMnCAH6FB-cOquwClWVSuVasCDHvZdG9tH2x4si6MaIHsZ2pnWtAnxXtUCLv8LtvZBbXi39qkC3gsGZJxS5YjxjM7FHOt1bDYvoTSuLMGwpduqHOVXLJIjEfjubk3L2Ns_I_Ji4RM1ay-2KgoadjErC0VxzRWsV6Pqu0-rC__Wft1WyqsOEHGYEPInSeG6847bcv-hPLTQjPIkzpXcYxNHkTMv-w7dBu1]--></g></svg>