<?xml version="1.0" encoding="us-ascii" standalone="no"?><svg xmlns="http://www.w3.org/2000/svg" xmlns:xlink="http://www.w3.org/1999/xlink" contentStyleType="text/css" height="464px" preserveAspectRatio="none" style="width:621px;height:464px;background:#FFFFFF;" version="1.1" viewBox="0 0 621 464" width="621px" zoomAndPan="magnify"><defs/><g><text fill="#000000" font-family="sans-serif" font-size="14" font-weight="bold" lengthAdjust="spacing" textLength="108" x="249.925" y="23.1318">Type 2 Coupled</text><!--entity atm--><g id="elem_atm"><path d="M337.3508,55.1036 C342.5012,45.6411 349.5882,45.6219 356.5467,53.0484 C364.2462,45.7634 371.2925,45.4426 376.6665,55.7136 C384.048,59.3858 386.7999,63.509 380.155,70.4922 C387.2326,76.9758 383.4476,84.1083 375.638,86.3518 C373.2276,96.935 365.1965,101.7939 356.1553,93.0288 C348.0392,99.0148 339.759,94.5371 338.3159,85.2398 C329.6786,83.6359 329.5563,78.5496 333.5832,72.3101 C327.7347,65.7882 328.5986,58.4284 337.3508,55.1036 " fill="#F1F1F1" style="stroke:#181818;stroke-width:0.5;"/><text fill="#000000" font-family="sans-serif" font-size="14" lengthAdjust="spacing" textLength="24" x="343.85" y="75.2305">atm</text></g><!--entity snow--><g id="elem_snow"><polygon fill="#F1F1F1" points="319.35,197.0986,329.35,187.0986,392.35,187.0986,392.35,223.1973,382.35,233.1973,319.35,233.1973,319.35,197.0986" style="stroke:#181818;stroke-width:0.5;"/><line style="stroke:#181818;stroke-width:0.5;" x1="382.35" x2="392.35" y1="197.0986" y2="187.0986"/><line style="stroke:#181818;stroke-width:0.5;" x1="319.35" x2="382.35" y1="197.0986" y2="197.0986"/><line style="stroke:#181818;stroke-width:0.5;" x1="382.35" x2="382.35" y1="197.0986" y2="233.1973"/><text fill="#000000" font-family="sans-serif" font-size="14" lengthAdjust="spacing" textLength="33" x="334.35" y="220.2305">snow</text></g><!--entity ice--><g id="elem_ice"><rect fill="#F1F1F1" height="36.0986" rx="2.5" ry="2.5" style="stroke:none;stroke-width:0.5;" width="99" x="181.35" y="309.0986"/><path d="M166.35,309.0986 L178.85,309.0986 A2.5,2.5 0 0 1 181.35,311.5986 L181.35,342.6973 A2.5,2.5 0 0 0 183.85,345.1973 L277.85,345.1973 A2.5,2.5 0 0 0 280.35,342.6973 L280.35,311.5986 A2.5,2.5 0 0 1 282.85,309.0986 L295.35,309.0986 " fill="none" style="stroke:#181818;stroke-width:0.5;"/><text fill="#000000" font-family="sans-serif" font-size="14" lengthAdjust="spacing" textLength="79" x="191.35" y="332.2305">ice sheet (4)</text></g><!--entity ocean--><g id="elem_ocean"><rect fill="#F1F1F1" height="36.0986" rx="2.5" ry="2.5" style="stroke:none;stroke-width:0.5;" width="59" x="205.35" y="421.0986"/><path d="M190.35,421.0986 L202.85,421.0986 A2.5,2.5 0 0 1 205.35,423.5986 L205.35,454.6973 A2.5,2.5 0 0 0 207.85,457.1973 L261.85,457.1973 A2.5,2.5 0 0 0 264.35,454.6973 L264.35,423.5986 A2.5,2.5 0 0 1 266.85,421.0986 L279.35,421.0986 " fill="none" style="stroke:#181818;stroke-width:0.5;"/><text fill="#000000" font-family="sans-serif" font-size="14" lengthAdjust="spacing" textLength="39" x="215.35" y="444.2305">ocean</text></g><!--entity legend--><g id="elem_legend"><rect fill="#F1F1F1" height="52.1973" rx="2.5" ry="2.5" style="stroke:#181818;stroke-width:0.5;" width="198" x="417.85" y="44.0986"/><text fill="#000000" font-family="sans-serif" font-size="14" lengthAdjust="spacing" textLength="110" x="427.85" y="67.2305">(1) + (2) + (3) = 0</text><text fill="#000000" font-family="sans-serif" font-size="14" lengthAdjust="spacing" textLength="178" x="427.85" y="83.3291">(2) + (4) + (5) + (6) + (7) = 0</text></g><!--link atm to snow--><g id="link_atm_snow"><path d="M355.85,99.2686 C355.85,125.0186 355.85,155.2486 355.85,180.9786 " fill="none" id="atm-snow" style="stroke:#181818;stroke-width:1.0;"/><polygon fill="#181818" points="355.85,93.2686,351.85,102.2686,355.85,98.2686,359.85,102.2686,355.85,93.2686" style="stroke:#181818;stroke-width:1.0;"/><polygon fill="#181818" points="355.85,186.9786,359.85,177.9786,355.85,181.9786,351.85,177.9786,355.85,186.9786" style="stroke:#181818;stroke-width:1.0;"/><text fill="#000000" font-family="sans-serif" font-size="13" lengthAdjust="spacing" textLength="67" x="356.85" y="139.2925">(1) precip &amp;</text><text fill="#000000" font-family="sans-serif" font-size="13" lengthAdjust="spacing" textLength="66" x="361.35" y="154.2412">sublimation</text></g><!--link snow to ocean--><g id="link_snow_ocean"><path d="M378.55,233.1386 C385.86,241.7186 393.04,252.1286 396.85,263.0986 C410.94,303.7386 435.87,318.8986 370.85,391.0986 C347.61,416.8986 315.42,427.5033 285.45,432.7533 " fill="none" id="snow-to-ocean" style="stroke:#181818;stroke-width:1.0;"/><polygon fill="#181818" points="279.54,433.7886,289.0952,436.1757,284.465,432.9259,287.7148,428.2957,279.54,433.7886" style="stroke:#181818;stroke-width:1.0;"/><text fill="#000000" font-family="sans-serif" font-size="13" lengthAdjust="spacing" textLength="52" x="413.85" y="332.2925">(3) runoff</text></g><!--link snow to ice--><g id="link_snow_ice"><path d="M327.3343,237.3308 C303.3543,259.3908 275.8954,284.6561 253.9954,304.8061 " fill="none" id="snow-ice" style="stroke:#181818;stroke-width:1.0;"/><polygon fill="#181818" points="331.75,233.2686,322.4183,236.4181,328.0702,236.6538,327.8345,242.3057,331.75,233.2686" style="stroke:#181818;stroke-width:1.0;"/><polygon fill="#181818" points="249.58,308.8686,258.9114,305.7184,253.2595,305.4832,253.4947,299.8312,249.58,308.8686" style="stroke:#181818;stroke-width:1.0;"/><text fill="#000000" font-family="sans-serif" font-size="13" lengthAdjust="spacing" textLength="89" x="298.85" y="276.2925">(2) Firn transfer</text></g><!--link ice to ocean--><g id="link_ice_ocean"><path d="M166.17,329.1286 C98.29,332.5886 6,345.4786 41.85,391.0986 C59.96,414.1486 133.1743,426.5808 184.3143,432.8308 " fill="none" id="ice-to-ocean" style="stroke:#181818;stroke-width:1.0;"/><polygon fill="#181818" points="190.27,433.5586,181.8217,428.4964,185.3069,432.9521,180.8512,436.4373,190.27,433.5586" style="stroke:#181818;stroke-width:1.0;"/><text fill="#000000" font-family="sans-serif" font-size="13" lengthAdjust="spacing" textLength="87" x="42.85" y="388.2925">(5) Iceberg flux</text></g><!--link ice to ocean--><g id="link_ice_ocean"><path d="M196.32,345.3386 C178.32,356.8686 161.77,373.1786 170.85,391.0986 C177.14,403.5186 183.4188,410.159 194.7788,417.639 " fill="none" id="ice-to-ocean-1" style="stroke:#181818;stroke-width:1.0;"/><polygon fill="#181818" points="199.79,420.9386,194.4729,412.6484,195.614,418.1889,190.0734,419.33,199.79,420.9386" style="stroke:#181818;stroke-width:1.0;"/><text fill="#000000" font-family="sans-serif" font-size="13" lengthAdjust="spacing" textLength="81" x="171.85" y="388.2925">(6) Basal melt</text></g><!--link ice to ocean--><g id="link_ice_ocean"><path d="M243.72,345.4286 C249.23,353.9086 255.03,364.5486 257.85,375.0986 C262.08,390.9586 257.7546,403.3122 250.2446,415.8422 " fill="none" id="ice-to-ocean-2" style="stroke:#181818;stroke-width:1.0;"/><polygon fill="#181818" points="247.16,420.9886,255.2178,415.3254,249.7305,416.7,248.3559,411.2127,247.16,420.9886" style="stroke:#181818;stroke-width:1.0;"/><text fill="#000000" font-family="sans-serif" font-size="13" lengthAdjust="spacing" textLength="101" x="260.85" y="388.2925">(7) Surface runoff</text></g><!--SRC=[POyxJmCn48Jx_HLJeLXH90XvI5520H8IDUaWXUFREwpurYS_1FnxpiurACrOzZUpdZtQv7Y7u-_0MEB5vy5nGsISpmrqwabymuZYloacRIwmXl51zOXVp0cpbQBJ1BrXBKHZ3ll5ugdciCFiGM48REo0EtmAOZuxs-jalL2r56_D5lEZGiZYs_RAwg3oNM5BXLSR12beYIq7Ak1VUgtmPlZCeKFhyi-jOQFmhADswDcbMxnLUC-XrUFxr8B6vabBvnYEEvPctBziDAzrvhNm0VSqtLPLrrKtLRTNVle3]--></g></svg>